<svg xmlns="http://www.w3.org/2000/svg" width="63.539" height="137.731" viewBox="0 0 16.811 36.441"><defs><linearGradient id="b" x1="87.866" x2="87.866" y1="516.83" y2="528.75" gradientTransform="matrix(1.0278 0 0 1 582.85 121.43)" gradientUnits="userSpaceOnUse"><stop offset="0" style="stop-color:#999"/><stop offset="1" style="stop-color:#999;stop-opacity:0"/></linearGradient><linearGradient id="c" x1="618.49" x2="618.49" y1="496.57" y2="499.1" gradientTransform="matrix(1.0235 0 0 1 37.712 -1157.9)" gradientUnits="userSpaceOnUse"><stop offset="0" style="stop-color:#ccc"/><stop offset="1" style="stop-color:#ccc;stop-opacity:0"/></linearGradient><linearGradient id="d" x1="618.49" x2="618.49" y1="496.57" y2="499.1" gradientTransform="matrix(1 0 0 .50643 51.792 414.75)" gradientUnits="userSpaceOnUse"><stop offset="0" style="stop-color:#ccc"/><stop offset="1" style="stop-color:#ccc;stop-opacity:0"/></linearGradient><linearGradient id="e" x1="618.49" x2="618.49" y1="496.57" y2="499.1" gradientTransform="matrix(1 0 0 .42746 51.792 466.71)" gradientUnits="userSpaceOnUse"><stop offset="0" style="stop-color:#ccc"/><stop offset="1" style="stop-color:#ccc;stop-opacity:0"/></linearGradient><linearGradient id="f" x1="618.49" x2="618.49" y1="496.57" y2="499.1" gradientTransform="matrix(1 0 0 .26952 51.792 554.43)" gradientUnits="userSpaceOnUse"><stop offset="0" style="stop-color:#ccc"/><stop offset="1" style="stop-color:#ccc;stop-opacity:0"/></linearGradient><linearGradient id="g" x1="87.866" x2="87.866" y1="516.83" y2="521.42" gradientTransform="matrix(1.0364 0 0 .96441 581.97 -1263.8)" gradientUnits="userSpaceOnUse"><stop offset="0" style="stop-color:#999"/><stop offset="1" style="stop-color:#333"/></linearGradient><linearGradient id="h" x1="618.49" x2="618.49" y1="496.57" y2="499.1" gradientTransform="matrix(1.0364 0 0 .96441 29.714 -1226.1)" gradientUnits="userSpaceOnUse"><stop offset="0" style="stop-color:#ccc"/><stop offset="1" style="stop-color:#ccc;stop-opacity:0"/></linearGradient><linearGradient id="i" x1="618.49" x2="618.49" y1="496.57" y2="499.1" gradientTransform="matrix(1.0274 0 0 .48841 35.581 -982.83)" gradientUnits="userSpaceOnUse"><stop offset="0" style="stop-color:#ccc"/><stop offset="1" style="stop-color:#ccc;stop-opacity:0"/></linearGradient><linearGradient id="j" x1="618.49" x2="618.49" y1="496.57" y2="499.1" gradientTransform="matrix(1.0213 0 0 .41225 39.183 -932.97)" gradientUnits="userSpaceOnUse"><stop offset="0" style="stop-color:#ccc"/><stop offset="1" style="stop-color:#ccc;stop-opacity:0"/></linearGradient><linearGradient id="k" x1="618.49" x2="618.49" y1="496.57" y2="499.1" gradientTransform="matrix(1.0122 0 0 .25993 44.587 -848)" gradientUnits="userSpaceOnUse"><stop offset="0" style="stop-color:#ccc"/><stop offset="1" style="stop-color:#ccc;stop-opacity:0"/></linearGradient><filter id="a" width="1" height="1" x="0" y="0" style="color-interpolation-filters:sRGB"><feColorMatrix result="color2" values="-1 0 0 0 1 0 -1 0 0 1 0 0 -1 0 1 0.21 0.72 0.07 1 0"/></filter></defs><g style="filter:url(#a)" transform="matrix(.26458 0 0 .26458 -169.958 -167.779)"><rect width="62.143" height="129.29" x="642.36" y="637.36" rx="3" ry="3" style="fill:#4d4d4d"/><path d="M643.3 701.75h60.419v3.535H643.3z" style="fill:#e6e6e6"/><rect width="60.613" height="21.071" x="643.05" y="638.08" rx="2.148" ry="2" style="fill:url(#b)"/><path d="M643.25 689.59h58.811v10.119H643.25zM642.36 680.23h61.133v8.793H642.36z" style="fill:#333"/><path d="M642.36 661.81h61.133v4.546H642.36zM642.36 667.58h61.133v11.364H642.36z" style="fill:#1a1a1a"/><rect width="60.012" height="2.261" x="643.05" y="-661.09" rx="1.024" ry=".64" style="fill:url(#c)" transform="scale(1 -1)"/><rect width="58.633" height="1.145" x="643.22" y="666.37" rx="1" ry=".324" style="fill:url(#d)"/><rect width="58.633" height=".967" x="643.22" y="679.09" rx="1" ry=".273" style="fill:url(#e)"/><rect width="58.633" height=".609" x="643.22" y="688.34" rx="1" ry=".172" style="fill:url(#f)"/><rect width="61.118" height="20.321" x="642.67" y="-765.57" rx="2.166" ry="1.929" style="fill:url(#g)" transform="scale(1 -1)"/><path d="M643.25-717.26h58.811v9.759H643.25z" style="fill:#333" transform="scale(1 -1)"/><path d="M642.36-726.3h61.133v8.48H642.36z" style="fill:#666" transform="scale(1 -1)"/><path d="M642.36-744.06h61.133v4.384H642.36zM642.36-738.49h61.133v10.96H642.36z" style="fill:gray" transform="scale(1 -1)"/><rect width="60.767" height="2.181" x="642.67" y="-746.93" rx="1.036" ry=".617" style="fill:url(#h)" transform="scale(1 -1)"/><rect width="60.24" height="1.104" x="643.22" y="-740.17" rx="1.027" ry=".312" style="fill:url(#i)" transform="scale(1 -1)"/><rect width="59.883" height=".932" x="643.22" y="-728.15" rx="1.021" ry=".264" style="fill:url(#j)" transform="scale(1 -1)"/><rect width="59.347" height=".588" x="643.22" y="-718.85" rx="1.012" ry=".166" style="fill:url(#k)" transform="scale(1 -1)"/></g></svg>